<svg width="357" height="70" viewBox="0 0 357 70" fill="none" xmlns="http://www.w3.org/2000/svg">
<g clip-path="url(#clip0_2_76)">
<path d="M0 69.9998C1.87571 64.4443 3.49867 59.3252 5.34778 54.2855C5.95971 52.6189 5.81338 51.349 5.0019 49.8014C-5.58723 29.2988 6.51843 4.81464 29.2797 0.595063C48.5557 -2.97637 66.6344 9.88078 69.6009 29.1004C72.4211 47.3279 59.9297 65.3305 40.0551 68.0025C33.4303 68.8887 26.8187 68.0554 20.7526 64.9337C19.3025 64.1929 18.0521 64.1665 16.5754 64.6691C11.2144 66.4416 5.83998 68.1215 0 69.9998ZM8.23451 61.9178C11.9327 60.7406 15.0323 59.6691 18.1851 58.7961C18.97 58.5713 20.0608 58.6903 20.7792 59.0739C26.699 62.2088 32.8449 63.6506 39.6427 62.7247C54.7282 60.6744 67.1399 46.4416 64.3463 29.5236C61.4994 12.3543 45.2965 3.24057 31.0889 5.56861C10.4295 8.95485 -0.199544 31.812 10.9217 49.4046C11.6667 50.5818 11.7598 51.5474 11.2676 52.8437C10.2299 55.6347 9.36526 58.4787 8.23451 61.9178Z" fill="white"/>
<path d="M8.23452 61.918C9.37857 58.4788 10.23 55.6349 11.2809 52.8439C11.7731 51.5476 11.68 50.582 10.935 49.4047C-0.186235 31.8121 10.4428 8.95499 31.1022 5.56875C45.3098 3.24071 61.526 12.3545 64.3596 29.5238C67.1532 46.4418 54.7415 60.6746 39.656 62.7248C32.8582 63.6508 26.7256 62.209 20.7925 59.074C20.0741 58.6904 18.9833 58.5714 18.1984 58.7963C15.0323 59.6693 11.9327 60.7407 8.23452 61.918Z" fill="#A5CD39"/>
<path d="M34.9734 30.4894L32.3527 22.1825H29.8651V21.3624H43.4208V22.1825H40.84L47.3584 42.7513L52.5998 22.1825H48.1832V21.3624H56.9232V22.1825H54.0365L45.9882 52.2222H42.0905L35.6252 32.5661L29.9449 52.2222H26.1403L15.1254 22.1825H13.0768V21.3624H27.2843V22.1825H24.2246L31.355 43.0026L34.9734 30.4894Z" fill="black"/>
</g>
<path d="M93.8574 36.6797L98.9551 13.4062H101.996L103.648 15.3926L98.2168 39H94.8594L93.8574 36.6797ZM92.5039 13.4062L96.8105 36.8555L95.7031 39H91.8184L86.3867 13.4062H92.5039ZM106.443 36.7324L110.715 13.4062H116.814L111.383 39H107.516L106.443 36.7324ZM104.193 13.4062L109.414 36.8203L108.359 39H105.002L99.4473 15.3574L101.17 13.4062H104.193ZM124.76 12V39H118.836V12H124.76ZM124.057 28.8398L122.668 28.875C122.668 27.5391 122.832 26.3086 123.16 25.1836C123.488 24.0586 123.957 23.0801 124.566 22.248C125.176 21.416 125.908 20.7715 126.764 20.3145C127.619 19.8574 128.568 19.6289 129.611 19.6289C130.549 19.6289 131.404 19.7637 132.178 20.0332C132.963 20.3027 133.637 20.7363 134.199 21.334C134.773 21.9316 135.213 22.7109 135.518 23.6719C135.834 24.6328 135.992 25.8047 135.992 27.1875V39H130.033V27.1523C130.033 26.3789 129.922 25.7812 129.699 25.3594C129.488 24.9258 129.184 24.627 128.785 24.4629C128.387 24.2871 127.9 24.1992 127.326 24.1992C126.635 24.1992 126.072 24.3164 125.639 24.5508C125.205 24.7852 124.871 25.1133 124.637 25.5352C124.414 25.9453 124.262 26.4316 124.18 26.9941C124.098 27.5566 124.057 28.1719 124.057 28.8398ZM149.158 34.2188V26.3789C149.158 25.8398 149.082 25.377 148.93 24.9902C148.777 24.6035 148.537 24.3047 148.209 24.0938C147.881 23.8711 147.441 23.7598 146.891 23.7598C146.445 23.7598 146.064 23.8359 145.748 23.9883C145.432 24.1406 145.191 24.3691 145.027 24.6738C144.863 24.9785 144.781 25.3652 144.781 25.834H138.857C138.857 24.9551 139.051 24.1406 139.438 23.3906C139.836 22.6289 140.398 21.9668 141.125 21.4043C141.863 20.8418 142.742 20.4082 143.762 20.1035C144.793 19.7871 145.941 19.6289 147.207 19.6289C148.719 19.6289 150.066 19.8809 151.25 20.3848C152.445 20.8887 153.389 21.6445 154.08 22.6523C154.771 23.6484 155.117 24.9023 155.117 26.4141V34.2012C155.117 35.4434 155.188 36.3867 155.328 37.0312C155.469 37.6641 155.668 38.2207 155.926 38.7012V39H149.984C149.703 38.4141 149.492 37.6992 149.352 36.8555C149.223 36 149.158 35.1211 149.158 34.2188ZM149.879 27.3809L149.914 30.5449H147.295C146.744 30.5449 146.275 30.6211 145.889 30.7734C145.514 30.9258 145.209 31.1367 144.975 31.4062C144.752 31.6641 144.588 31.957 144.482 32.2852C144.389 32.6133 144.342 32.959 144.342 33.3223C144.342 33.6738 144.424 33.9902 144.588 34.2715C144.764 34.541 144.998 34.752 145.291 34.9043C145.584 35.0566 145.912 35.1328 146.275 35.1328C146.932 35.1328 147.488 35.0098 147.945 34.7637C148.414 34.5059 148.771 34.1953 149.018 33.832C149.264 33.4688 149.387 33.1289 149.387 32.8125L150.688 35.2383C150.453 35.707 150.184 36.1816 149.879 36.6621C149.586 37.1426 149.217 37.5879 148.771 37.998C148.338 38.3965 147.805 38.7246 147.172 38.9824C146.539 39.2285 145.771 39.3516 144.869 39.3516C143.697 39.3516 142.619 39.1113 141.635 38.6309C140.662 38.1504 139.883 37.4824 139.297 36.627C138.711 35.7598 138.418 34.7637 138.418 33.6387C138.418 32.6543 138.594 31.7754 138.945 31.002C139.309 30.2285 139.854 29.5723 140.58 29.0332C141.307 28.4941 142.232 28.084 143.357 27.8027C144.482 27.5215 145.807 27.3809 147.33 27.3809H149.879ZM168.424 19.9805V24.0938H156.963V19.9805H168.424ZM159.371 15.252H165.295V32.7949C165.295 33.2988 165.354 33.6914 165.471 33.9727C165.588 34.2422 165.787 34.4355 166.068 34.5527C166.361 34.6582 166.748 34.7109 167.229 34.7109C167.568 34.7109 167.85 34.7051 168.072 34.6934C168.295 34.6699 168.506 34.6406 168.705 34.6055V38.8418C168.201 39.0059 167.674 39.1289 167.123 39.2109C166.572 39.3047 165.986 39.3516 165.365 39.3516C164.1 39.3516 163.016 39.1523 162.113 38.7539C161.223 38.3555 160.543 37.7285 160.074 36.873C159.605 36.0176 159.371 34.9043 159.371 33.5332V15.252ZM180.746 33.6562C180.746 33.3281 180.635 33.0469 180.412 32.8125C180.201 32.5664 179.826 32.3438 179.287 32.1445C178.748 31.9336 177.992 31.7227 177.02 31.5117C176.094 31.3125 175.221 31.0488 174.4 30.7207C173.592 30.3926 172.883 29.9941 172.273 29.5254C171.664 29.0566 171.184 28.5 170.832 27.8555C170.492 27.2109 170.322 26.4727 170.322 25.6406C170.322 24.832 170.492 24.0703 170.832 23.3555C171.184 22.6289 171.693 21.9902 172.361 21.4395C173.041 20.877 173.867 20.4375 174.84 20.1211C175.812 19.793 176.92 19.6289 178.162 19.6289C179.873 19.6289 181.35 19.8926 182.592 20.4199C183.834 20.9355 184.789 21.6621 185.457 22.5996C186.137 23.5254 186.477 24.5977 186.477 25.8164H180.553C180.553 25.3359 180.471 24.9258 180.307 24.5859C180.154 24.2461 179.902 23.9883 179.551 23.8125C179.199 23.625 178.73 23.5312 178.145 23.5312C177.734 23.5312 177.359 23.6074 177.02 23.7598C176.691 23.9121 176.428 24.123 176.229 24.3926C176.029 24.6621 175.93 24.9785 175.93 25.3418C175.93 25.5996 175.988 25.834 176.105 26.0449C176.234 26.2441 176.428 26.4316 176.686 26.6074C176.943 26.7715 177.271 26.9238 177.67 27.0645C178.068 27.1934 178.549 27.3105 179.111 27.416C180.389 27.6504 181.584 27.9844 182.697 28.418C183.811 28.8516 184.713 29.4668 185.404 30.2637C186.107 31.0605 186.459 32.1328 186.459 33.4805C186.459 34.3242 186.266 35.1035 185.879 35.8184C185.492 36.5215 184.936 37.1426 184.209 37.6816C183.482 38.209 182.609 38.6191 181.59 38.9121C180.57 39.2051 179.422 39.3516 178.145 39.3516C176.328 39.3516 174.793 39.0293 173.539 38.3848C172.285 37.7285 171.336 36.9082 170.691 35.9238C170.059 34.9277 169.742 33.9199 169.742 32.9004H175.262C175.285 33.4863 175.426 33.9668 175.684 34.3418C175.953 34.7168 176.311 34.9922 176.756 35.168C177.201 35.3438 177.717 35.4316 178.303 35.4316C178.842 35.4316 179.287 35.3555 179.639 35.2031C180.002 35.0508 180.277 34.8457 180.465 34.5879C180.652 34.3184 180.746 34.0078 180.746 33.6562ZM200.363 18.7852L194.123 39H187.496L196.9 13.4062H201.102L200.363 18.7852ZM205.531 39L199.273 18.7852L198.465 13.4062H202.719L212.176 39H205.531ZM205.285 29.4551V34.2188H192.154V29.4551H205.285ZM218.908 23.6367V46.3125H212.984V19.9805H218.504L218.908 23.6367ZM230.58 29.2617V29.6309C230.58 31.0137 230.422 32.2969 230.105 33.4805C229.789 34.6641 229.32 35.6953 228.699 36.5742C228.078 37.4531 227.305 38.1387 226.379 38.6309C225.465 39.1113 224.404 39.3516 223.197 39.3516C222.061 39.3516 221.082 39.0996 220.262 38.5957C219.441 38.0918 218.756 37.3945 218.205 36.5039C217.654 35.6133 217.209 34.5938 216.869 33.4453C216.529 32.2969 216.26 31.084 216.061 29.8066V29.332C216.26 27.9609 216.529 26.6895 216.869 25.5176C217.209 24.334 217.654 23.3027 218.205 22.4238C218.756 21.5449 219.436 20.8594 220.244 20.3672C221.064 19.875 222.043 19.6289 223.18 19.6289C224.387 19.6289 225.447 19.8574 226.361 20.3145C227.287 20.7715 228.061 21.4277 228.682 22.2832C229.314 23.127 229.789 24.1406 230.105 25.3242C230.422 26.5078 230.58 27.8203 230.58 29.2617ZM224.656 29.6309V29.2617C224.656 28.5234 224.604 27.8496 224.498 27.2402C224.393 26.6191 224.223 26.0801 223.988 25.623C223.766 25.166 223.467 24.8145 223.092 24.5684C222.717 24.3223 222.254 24.1992 221.703 24.1992C221.07 24.1992 220.537 24.2988 220.104 24.498C219.682 24.6855 219.342 24.9785 219.084 25.377C218.838 25.7637 218.662 26.25 218.557 26.8359C218.463 27.4102 218.422 28.084 218.434 28.8574V30.2988C218.41 31.1895 218.498 31.9746 218.697 32.6543C218.896 33.3223 219.242 33.8438 219.734 34.2188C220.227 34.5938 220.895 34.7812 221.738 34.7812C222.301 34.7812 222.77 34.6523 223.145 34.3945C223.52 34.125 223.818 33.7559 224.041 33.2871C224.264 32.8066 224.422 32.2559 224.516 31.6348C224.609 31.0137 224.656 30.3457 224.656 29.6309ZM239.193 23.6367V46.3125H233.27V19.9805H238.789L239.193 23.6367ZM250.865 29.2617V29.6309C250.865 31.0137 250.707 32.2969 250.391 33.4805C250.074 34.6641 249.605 35.6953 248.984 36.5742C248.363 37.4531 247.59 38.1387 246.664 38.6309C245.75 39.1113 244.689 39.3516 243.482 39.3516C242.346 39.3516 241.367 39.0996 240.547 38.5957C239.727 38.0918 239.041 37.3945 238.49 36.5039C237.939 35.6133 237.494 34.5938 237.154 33.4453C236.814 32.2969 236.545 31.084 236.346 29.8066V29.332C236.545 27.9609 236.814 26.6895 237.154 25.5176C237.494 24.334 237.939 23.3027 238.49 22.4238C239.041 21.5449 239.721 20.8594 240.529 20.3672C241.35 19.875 242.328 19.6289 243.465 19.6289C244.672 19.6289 245.732 19.8574 246.646 20.3145C247.572 20.7715 248.346 21.4277 248.967 22.2832C249.6 23.127 250.074 24.1406 250.391 25.3242C250.707 26.5078 250.865 27.8203 250.865 29.2617ZM244.941 29.6309V29.2617C244.941 28.5234 244.889 27.8496 244.783 27.2402C244.678 26.6191 244.508 26.0801 244.273 25.623C244.051 25.166 243.752 24.8145 243.377 24.5684C243.002 24.3223 242.539 24.1992 241.988 24.1992C241.355 24.1992 240.822 24.2988 240.389 24.498C239.967 24.6855 239.627 24.9785 239.369 25.377C239.123 25.7637 238.947 26.25 238.842 26.8359C238.748 27.4102 238.707 28.084 238.719 28.8574V30.2988C238.695 31.1895 238.783 31.9746 238.982 32.6543C239.182 33.3223 239.527 33.8438 240.02 34.2188C240.512 34.5938 241.18 34.7812 242.023 34.7812C242.586 34.7812 243.055 34.6523 243.43 34.3945C243.805 34.125 244.104 33.7559 244.326 33.2871C244.549 32.8066 244.707 32.2559 244.801 31.6348C244.895 31.0137 244.941 30.3457 244.941 29.6309ZM280.361 34.2539V39H266.721V34.2539H280.361ZM268.918 13.4062V39H262.748V13.4062H268.918ZM278.604 23.5664V28.1543H266.721V23.5664H278.604ZM280.414 13.4062V18.1699H266.721V13.4062H280.414ZM293.193 34.6406V12H299.152V39H293.809L293.193 34.6406ZM281.521 29.7188V29.3496C281.521 27.9082 281.68 26.5957 281.996 25.4121C282.312 24.2168 282.781 23.1914 283.402 22.3359C284.023 21.4688 284.797 20.8008 285.723 20.332C286.648 19.8633 287.715 19.6289 288.922 19.6289C290 19.6289 290.943 19.8809 291.752 20.3848C292.561 20.877 293.252 21.5684 293.826 22.459C294.4 23.3496 294.869 24.3926 295.232 25.5879C295.596 26.7715 295.871 28.0488 296.059 29.4199V29.8594C295.871 31.1484 295.596 32.3672 295.232 33.5156C294.869 34.6523 294.4 35.6602 293.826 36.5391C293.252 37.418 292.555 38.1094 291.734 38.6133C290.926 39.1055 289.977 39.3516 288.887 39.3516C287.68 39.3516 286.613 39.1113 285.688 38.6309C284.773 38.1504 284.006 37.4766 283.385 36.6094C282.775 35.7422 282.312 34.7227 281.996 33.5508C281.68 32.3789 281.521 31.1016 281.521 29.7188ZM287.445 29.3496V29.7188C287.445 30.4336 287.492 31.0957 287.586 31.7051C287.68 32.3145 287.838 32.8535 288.061 33.3223C288.295 33.7793 288.6 34.1367 288.975 34.3945C289.361 34.6523 289.836 34.7812 290.398 34.7812C291.16 34.7812 291.787 34.5996 292.279 34.2363C292.783 33.873 293.152 33.3574 293.387 32.6895C293.633 32.0215 293.738 31.2363 293.703 30.334V28.9453C293.727 28.1719 293.674 27.4922 293.545 26.9062C293.416 26.3086 293.211 25.8105 292.93 25.4121C292.66 25.0137 292.314 24.7148 291.893 24.5156C291.482 24.3047 290.996 24.1992 290.434 24.1992C289.883 24.1992 289.414 24.3281 289.027 24.5859C288.652 24.8438 288.348 25.207 288.113 25.6758C287.879 26.1328 287.709 26.6777 287.604 27.3105C287.498 27.9316 287.445 28.6113 287.445 29.3496ZM308.768 19.9805V39H302.826V19.9805H308.768ZM302.475 15.0762C302.475 14.2324 302.779 13.541 303.389 13.002C303.998 12.4629 304.789 12.1934 305.762 12.1934C306.734 12.1934 307.525 12.4629 308.135 13.002C308.744 13.541 309.049 14.2324 309.049 15.0762C309.049 15.9199 308.744 16.6113 308.135 17.1504C307.525 17.6895 306.734 17.959 305.762 17.959C304.789 17.959 303.998 17.6895 303.389 17.1504C302.779 16.6113 302.475 15.9199 302.475 15.0762ZM322.443 19.9805V24.0938H310.982V19.9805H322.443ZM313.391 15.252H319.314V32.7949C319.314 33.2988 319.373 33.6914 319.49 33.9727C319.607 34.2422 319.807 34.4355 320.088 34.5527C320.381 34.6582 320.768 34.7109 321.248 34.7109C321.588 34.7109 321.869 34.7051 322.092 34.6934C322.314 34.6699 322.525 34.6406 322.725 34.6055V38.8418C322.221 39.0059 321.693 39.1289 321.143 39.2109C320.592 39.3047 320.006 39.3516 319.385 39.3516C318.119 39.3516 317.035 39.1523 316.133 38.7539C315.242 38.3555 314.562 37.7285 314.094 36.873C313.625 36.0176 313.391 34.9043 313.391 33.5332V15.252ZM323.533 29.6836V29.3145C323.533 27.9199 323.732 26.6367 324.131 25.4648C324.529 24.2812 325.115 23.2559 325.889 22.3887C326.662 21.5215 327.617 20.8477 328.754 20.3672C329.891 19.875 331.203 19.6289 332.691 19.6289C334.191 19.6289 335.51 19.875 336.646 20.3672C337.795 20.8477 338.756 21.5215 339.529 22.3887C340.303 23.2559 340.889 24.2812 341.287 25.4648C341.686 26.6367 341.885 27.9199 341.885 29.3145V29.6836C341.885 31.0664 341.686 32.3496 341.287 33.5332C340.889 34.7051 340.303 35.7305 339.529 36.6094C338.756 37.4766 337.801 38.1504 336.664 38.6309C335.527 39.1113 334.215 39.3516 332.727 39.3516C331.238 39.3516 329.92 39.1113 328.771 38.6309C327.623 38.1504 326.662 37.4766 325.889 36.6094C325.115 35.7305 324.529 34.7051 324.131 33.5332C323.732 32.3496 323.533 31.0664 323.533 29.6836ZM329.457 29.3145V29.6836C329.457 30.3984 329.51 31.0664 329.615 31.6875C329.721 32.3086 329.896 32.8535 330.143 33.3223C330.389 33.7793 330.723 34.1367 331.145 34.3945C331.566 34.6523 332.094 34.7812 332.727 34.7812C333.348 34.7812 333.863 34.6523 334.273 34.3945C334.695 34.1367 335.029 33.7793 335.275 33.3223C335.521 32.8535 335.697 32.3086 335.803 31.6875C335.908 31.0664 335.961 30.3984 335.961 29.6836V29.3145C335.961 28.623 335.908 27.9727 335.803 27.3633C335.697 26.7422 335.521 26.1973 335.275 25.7285C335.029 25.248 334.695 24.873 334.273 24.6035C333.852 24.334 333.324 24.1992 332.691 24.1992C332.07 24.1992 331.549 24.334 331.127 24.6035C330.717 24.873 330.389 25.248 330.143 25.7285C329.896 26.1973 329.721 26.7422 329.615 27.3633C329.51 27.9727 329.457 28.623 329.457 29.3145ZM350.498 24.6914V39H344.574V19.9805H350.111L350.498 24.6914ZM356.123 19.8398L356.018 25.3418C355.783 25.3184 355.467 25.2891 355.068 25.2539C354.67 25.2188 354.336 25.2012 354.066 25.2012C353.375 25.2012 352.777 25.2832 352.273 25.4473C351.781 25.5996 351.371 25.834 351.043 26.1504C350.727 26.4551 350.492 26.8418 350.34 27.3105C350.199 27.7793 350.135 28.3242 350.146 28.9453L349.074 28.2422C349.074 26.9648 349.197 25.8047 349.443 24.7617C349.701 23.707 350.064 22.7988 350.533 22.0371C351.002 21.2637 351.57 20.6719 352.238 20.2617C352.906 19.8398 353.656 19.6289 354.488 19.6289C354.781 19.6289 355.068 19.6465 355.35 19.6816C355.643 19.7168 355.9 19.7695 356.123 19.8398Z" fill="#A5CD39"/>
<path d="M91.7061 54.7451V65.4531H90.1621V53.0186H91.5732L91.7061 54.7451ZM97.7573 57.4346V57.6089C97.7573 58.2619 97.6799 58.8678 97.5249 59.4268C97.37 59.9801 97.1431 60.4616 96.8442 60.8711C96.5509 61.2806 96.1885 61.5988 95.7568 61.8257C95.3252 62.0526 94.8299 62.166 94.271 62.166C93.701 62.166 93.1974 62.0719 92.7603 61.8838C92.3231 61.6956 91.9523 61.4217 91.6479 61.062C91.3436 60.7023 91.1001 60.2707 90.9175 59.7671C90.7404 59.2635 90.6187 58.6963 90.5522 58.0654V57.1357C90.6187 56.4717 90.7432 55.8768 90.9258 55.3511C91.1084 54.8254 91.3491 54.3771 91.6479 54.0063C91.9523 53.63 92.3203 53.3451 92.752 53.1514C93.1836 52.9521 93.6816 52.8525 94.2461 52.8525C94.8105 52.8525 95.3114 52.9632 95.7485 53.1846C96.1857 53.4004 96.5537 53.7103 96.8525 54.1143C97.1514 54.5182 97.3755 55.0024 97.5249 55.5669C97.6799 56.1258 97.7573 56.7484 97.7573 57.4346ZM96.2134 57.6089V57.4346C96.2134 56.9863 96.1663 56.5658 96.0723 56.1729C95.9782 55.7744 95.8315 55.4258 95.6323 55.127C95.4386 54.8226 95.1896 54.5846 94.8853 54.4131C94.5809 54.236 94.2184 54.1475 93.7979 54.1475C93.4105 54.1475 93.0729 54.2139 92.7852 54.3467C92.5029 54.4795 92.2622 54.6593 92.063 54.8862C91.8638 55.1076 91.7005 55.3621 91.5732 55.6499C91.4515 55.9321 91.3602 56.2254 91.2993 56.5298V58.6797C91.41 59.0671 91.5649 59.4323 91.7642 59.7754C91.9634 60.113 92.229 60.3869 92.561 60.5972C92.8931 60.8019 93.3109 60.9043 93.8145 60.9043C94.2295 60.9043 94.5864 60.8185 94.8853 60.647C95.1896 60.4699 95.4386 60.2292 95.6323 59.9248C95.8315 59.6204 95.9782 59.2718 96.0723 58.8789C96.1663 58.4805 96.2134 58.0571 96.2134 57.6089ZM101.252 54.4297V62H99.7163V53.0186H101.21L101.252 54.4297ZM104.058 52.9688L104.049 54.3965C103.922 54.3688 103.8 54.3522 103.684 54.3467C103.573 54.3356 103.446 54.3301 103.302 54.3301C102.948 54.3301 102.635 54.3854 102.364 54.4961C102.093 54.6068 101.863 54.7617 101.675 54.9609C101.487 55.1602 101.338 55.3981 101.227 55.6748C101.122 55.946 101.053 56.2448 101.02 56.5713L100.588 56.8203C100.588 56.278 100.64 55.7689 100.746 55.293C100.856 54.8171 101.025 54.3965 101.252 54.0312C101.479 53.6605 101.767 53.3727 102.115 53.168C102.469 52.9577 102.89 52.8525 103.377 52.8525C103.488 52.8525 103.615 52.8664 103.759 52.894C103.903 52.9162 104.002 52.9411 104.058 52.9688ZM110.441 60.4644V55.8408C110.441 55.4867 110.369 55.1795 110.225 54.9194C110.087 54.6538 109.876 54.4491 109.594 54.3052C109.312 54.1613 108.963 54.0894 108.548 54.0894C108.161 54.0894 107.821 54.1558 107.527 54.2886C107.24 54.4214 107.013 54.5957 106.847 54.8115C106.686 55.0273 106.606 55.2598 106.606 55.5088H105.07C105.07 55.1878 105.153 54.8696 105.319 54.5542C105.485 54.2388 105.723 53.9538 106.033 53.6992C106.349 53.4391 106.725 53.2344 107.162 53.085C107.605 52.93 108.097 52.8525 108.64 52.8525C109.293 52.8525 109.868 52.9632 110.366 53.1846C110.87 53.4059 111.263 53.7407 111.545 54.189C111.833 54.6317 111.977 55.1878 111.977 55.8574V60.041C111.977 60.3398 112.001 60.658 112.051 60.9956C112.107 61.3332 112.187 61.6237 112.292 61.8672V62H110.69C110.612 61.8229 110.552 61.5877 110.507 61.2944C110.463 60.9956 110.441 60.7189 110.441 60.4644ZM110.707 56.5547L110.723 57.6338H109.171C108.734 57.6338 108.344 57.6698 108 57.7417C107.657 57.8081 107.37 57.9105 107.137 58.0488C106.905 58.1872 106.728 58.3615 106.606 58.5718C106.484 58.7765 106.423 59.0173 106.423 59.2939C106.423 59.5762 106.487 59.8335 106.614 60.0659C106.742 60.2983 106.932 60.4837 107.187 60.6221C107.447 60.7549 107.765 60.8213 108.142 60.8213C108.612 60.8213 109.027 60.7217 109.387 60.5225C109.746 60.3232 110.031 60.0798 110.242 59.792C110.458 59.5042 110.574 59.2248 110.59 58.9536L111.246 59.6924C111.207 59.9248 111.102 60.1821 110.931 60.4644C110.759 60.7466 110.529 61.0177 110.242 61.2778C109.959 61.5324 109.622 61.7454 109.229 61.917C108.842 62.083 108.404 62.166 107.917 62.166C107.309 62.166 106.775 62.047 106.315 61.8091C105.862 61.5711 105.507 61.2529 105.253 60.8545C105.004 60.4505 104.879 59.9995 104.879 59.5015C104.879 59.02 104.973 58.5967 105.162 58.2314C105.35 57.8607 105.621 57.5535 105.975 57.3101C106.329 57.061 106.755 56.8729 107.253 56.7456C107.751 56.6183 108.308 56.5547 108.922 56.5547H110.707ZM117.986 60.9043C118.352 60.9043 118.689 60.8296 118.999 60.6802C119.309 60.5308 119.563 60.326 119.763 60.0659C119.962 59.8003 120.075 59.4987 120.103 59.1611H121.564C121.536 59.6924 121.356 60.1877 121.024 60.647C120.698 61.1007 120.269 61.4688 119.738 61.751C119.207 62.0277 118.623 62.166 117.986 62.166C117.311 62.166 116.722 62.047 116.218 61.8091C115.72 61.5711 115.305 61.2446 114.973 60.8296C114.647 60.4146 114.4 59.9386 114.234 59.4019C114.074 58.8595 113.994 58.2868 113.994 57.6836V57.335C113.994 56.7318 114.074 56.1618 114.234 55.625C114.4 55.0827 114.647 54.604 114.973 54.189C115.305 53.7739 115.72 53.4474 116.218 53.2095C116.722 52.9715 117.311 52.8525 117.986 52.8525C118.689 52.8525 119.303 52.9964 119.829 53.2842C120.355 53.5664 120.767 53.9538 121.066 54.4463C121.37 54.9333 121.536 55.4867 121.564 56.1064H120.103C120.075 55.7357 119.97 55.4009 119.788 55.1021C119.611 54.8032 119.367 54.5653 119.057 54.3882C118.753 54.2056 118.396 54.1143 117.986 54.1143C117.516 54.1143 117.12 54.2083 116.799 54.3965C116.484 54.5791 116.232 54.8281 116.044 55.1436C115.861 55.4535 115.729 55.7993 115.646 56.1812C115.568 56.5575 115.529 56.9421 115.529 57.335V57.6836C115.529 58.0765 115.568 58.4639 115.646 58.8457C115.723 59.2275 115.853 59.5734 116.036 59.8833C116.224 60.1932 116.476 60.4422 116.791 60.6304C117.112 60.813 117.51 60.9043 117.986 60.9043ZM127.051 53.0186V54.1973H122.195V53.0186H127.051ZM123.838 50.8354H125.374V59.7754C125.374 60.0798 125.421 60.3094 125.515 60.4644C125.609 60.6193 125.731 60.7217 125.88 60.7715C126.03 60.8213 126.19 60.8462 126.362 60.8462C126.489 60.8462 126.622 60.8351 126.76 60.813C126.904 60.7853 127.012 60.7632 127.084 60.7466L127.092 62C126.971 62.0387 126.81 62.0747 126.611 62.1079C126.417 62.1466 126.182 62.166 125.905 62.166C125.529 62.166 125.183 62.0913 124.868 61.9419C124.552 61.7925 124.3 61.5435 124.112 61.1948C123.93 60.8407 123.838 60.3647 123.838 59.7671V50.8354ZM130.521 53.0186V62H128.977V53.0186H130.521ZM128.86 50.6362C128.86 50.3872 128.935 50.1769 129.084 50.0054C129.239 49.8338 129.466 49.748 129.765 49.748C130.058 49.748 130.283 49.8338 130.438 50.0054C130.598 50.1769 130.678 50.3872 130.678 50.6362C130.678 50.8742 130.598 51.0789 130.438 51.2505C130.283 51.4165 130.058 51.4995 129.765 51.4995C129.466 51.4995 129.239 51.4165 129.084 51.2505C128.935 51.0789 128.86 50.8742 128.86 50.6362ZM136.58 60.9043C136.945 60.9043 137.283 60.8296 137.593 60.6802C137.903 60.5308 138.157 60.326 138.356 60.0659C138.556 59.8003 138.669 59.4987 138.697 59.1611H140.158C140.13 59.6924 139.95 60.1877 139.618 60.647C139.292 61.1007 138.863 61.4688 138.332 61.751C137.8 62.0277 137.216 62.166 136.58 62.166C135.905 62.166 135.316 62.047 134.812 61.8091C134.314 61.5711 133.899 61.2446 133.567 60.8296C133.24 60.4146 132.994 59.9386 132.828 59.4019C132.668 58.8595 132.587 58.2868 132.587 57.6836V57.335C132.587 56.7318 132.668 56.1618 132.828 55.625C132.994 55.0827 133.24 54.604 133.567 54.189C133.899 53.7739 134.314 53.4474 134.812 53.2095C135.316 52.9715 135.905 52.8525 136.58 52.8525C137.283 52.8525 137.897 52.9964 138.423 53.2842C138.949 53.5664 139.361 53.9538 139.66 54.4463C139.964 54.9333 140.13 55.4867 140.158 56.1064H138.697C138.669 55.7357 138.564 55.4009 138.381 55.1021C138.204 54.8032 137.961 54.5653 137.651 54.3882C137.347 54.2056 136.99 54.1143 136.58 54.1143C136.11 54.1143 135.714 54.2083 135.393 54.3965C135.078 54.5791 134.826 54.8281 134.638 55.1436C134.455 55.4535 134.322 55.7993 134.239 56.1812C134.162 56.5575 134.123 56.9421 134.123 57.335V57.6836C134.123 58.0765 134.162 58.4639 134.239 58.8457C134.317 59.2275 134.447 59.5734 134.629 59.8833C134.818 60.1932 135.069 60.4422 135.385 60.6304C135.706 60.813 136.104 60.9043 136.58 60.9043ZM147.18 60.4644V55.8408C147.18 55.4867 147.108 55.1795 146.964 54.9194C146.826 54.6538 146.616 54.4491 146.333 54.3052C146.051 54.1613 145.703 54.0894 145.288 54.0894C144.9 54.0894 144.56 54.1558 144.267 54.2886C143.979 54.4214 143.752 54.5957 143.586 54.8115C143.425 55.0273 143.345 55.2598 143.345 55.5088H141.81C141.81 55.1878 141.893 54.8696 142.059 54.5542C142.225 54.2388 142.463 53.9538 142.772 53.6992C143.088 53.4391 143.464 53.2344 143.901 53.085C144.344 52.93 144.837 52.8525 145.379 52.8525C146.032 52.8525 146.607 52.9632 147.105 53.1846C147.609 53.4059 148.002 53.7407 148.284 54.189C148.572 54.6317 148.716 55.1878 148.716 55.8574V60.041C148.716 60.3398 148.741 60.658 148.791 60.9956C148.846 61.3332 148.926 61.6237 149.031 61.8672V62H147.429C147.352 61.8229 147.291 61.5877 147.247 61.2944C147.202 60.9956 147.18 60.7189 147.18 60.4644ZM147.446 56.5547L147.462 57.6338H145.91C145.473 57.6338 145.083 57.6698 144.74 57.7417C144.397 57.8081 144.109 57.9105 143.876 58.0488C143.644 58.1872 143.467 58.3615 143.345 58.5718C143.223 58.7765 143.163 59.0173 143.163 59.2939C143.163 59.5762 143.226 59.8335 143.354 60.0659C143.481 60.2983 143.672 60.4837 143.926 60.6221C144.186 60.7549 144.505 60.8213 144.881 60.8213C145.351 60.8213 145.766 60.7217 146.126 60.5225C146.486 60.3232 146.771 60.0798 146.981 59.792C147.197 59.5042 147.313 59.2248 147.33 58.9536L147.985 59.6924C147.947 59.9248 147.841 60.1821 147.67 60.4644C147.498 60.7466 147.269 61.0177 146.981 61.2778C146.699 61.5324 146.361 61.7454 145.968 61.917C145.581 62.083 145.144 62.166 144.657 62.166C144.048 62.166 143.514 62.047 143.055 61.8091C142.601 61.5711 142.247 61.2529 141.992 60.8545C141.743 60.4505 141.619 59.9995 141.619 59.5015C141.619 59.02 141.713 58.5967 141.901 58.2314C142.089 57.8607 142.36 57.5535 142.714 57.3101C143.069 57.061 143.495 56.8729 143.993 56.7456C144.491 56.6183 145.047 56.5547 145.661 56.5547H147.446ZM152.8 49.25V62H151.256V49.25H152.8ZM156.934 53.0186V62H155.39V53.0186H156.934ZM155.273 50.6362C155.273 50.3872 155.348 50.1769 155.498 50.0054C155.653 49.8338 155.879 49.748 156.178 49.748C156.472 49.748 156.696 49.8338 156.851 50.0054C157.011 50.1769 157.091 50.3872 157.091 50.6362C157.091 50.8742 157.011 51.0789 156.851 51.2505C156.696 51.4165 156.472 51.4995 156.178 51.4995C155.879 51.4995 155.653 51.4165 155.498 51.2505C155.348 51.0789 155.273 50.8742 155.273 50.6362ZM163.159 53.0186V54.1973H158.303V53.0186H163.159ZM159.947 50.8354H161.482V59.7754C161.482 60.0798 161.529 60.3094 161.624 60.4644C161.718 60.6193 161.839 60.7217 161.989 60.7715C162.138 60.8213 162.299 60.8462 162.47 60.8462C162.597 60.8462 162.73 60.8351 162.869 60.813C163.013 60.7853 163.12 60.7632 163.192 60.7466L163.201 62C163.079 62.0387 162.918 62.0747 162.719 62.1079C162.526 62.1466 162.29 62.166 162.014 62.166C161.637 62.166 161.292 62.0913 160.976 61.9419C160.661 61.7925 160.409 61.5435 160.221 61.1948C160.038 60.8407 159.947 60.3647 159.947 59.7671V50.8354ZM167.484 61.0703L169.982 53.0186H171.626L168.023 63.3862C167.94 63.6076 167.83 63.8455 167.691 64.1001C167.559 64.3602 167.387 64.6064 167.177 64.8389C166.966 65.0713 166.712 65.2594 166.413 65.4033C166.12 65.5527 165.768 65.6274 165.359 65.6274C165.237 65.6274 165.082 65.6108 164.894 65.5776C164.706 65.5444 164.573 65.5168 164.496 65.4946L164.487 64.2495C164.532 64.255 164.601 64.2606 164.695 64.2661C164.794 64.2772 164.864 64.2827 164.902 64.2827C165.251 64.2827 165.547 64.2357 165.791 64.1416C166.034 64.0531 166.239 63.9009 166.405 63.6851C166.576 63.4748 166.723 63.1842 166.845 62.8135L167.484 61.0703ZM165.649 53.0186L167.982 59.9912L168.38 61.6099L167.276 62.1743L163.973 53.0186H165.649ZM179.52 62H177.984V52.0723C177.984 51.4248 178.101 50.8797 178.333 50.437C178.571 49.9888 178.911 49.6512 179.354 49.4243C179.797 49.1919 180.322 49.0757 180.931 49.0757C181.108 49.0757 181.285 49.0868 181.462 49.1089C181.645 49.131 181.822 49.1642 181.994 49.2085L181.911 50.4619C181.794 50.4342 181.662 50.4149 181.512 50.4038C181.368 50.3927 181.224 50.3872 181.081 50.3872C180.754 50.3872 180.472 50.4536 180.234 50.5864C180.001 50.7137 179.824 50.9019 179.703 51.1509C179.581 51.3999 179.52 51.707 179.52 52.0723V62ZM181.429 53.0186V54.1973H176.565V53.0186H181.429ZM182.732 57.6089V57.418C182.732 56.7705 182.826 56.1701 183.015 55.6167C183.203 55.0578 183.474 54.5736 183.828 54.1641C184.182 53.749 184.611 53.4281 185.115 53.2012C185.618 52.9688 186.183 52.8525 186.808 52.8525C187.439 52.8525 188.006 52.9688 188.51 53.2012C189.019 53.4281 189.451 53.749 189.805 54.1641C190.164 54.5736 190.438 55.0578 190.626 55.6167C190.815 56.1701 190.909 56.7705 190.909 57.418V57.6089C190.909 58.2563 190.815 58.8568 190.626 59.4102C190.438 59.9635 190.164 60.4478 189.805 60.8628C189.451 61.2723 189.022 61.5933 188.518 61.8257C188.02 62.0526 187.456 62.166 186.825 62.166C186.194 62.166 185.627 62.0526 185.123 61.8257C184.619 61.5933 184.188 61.2723 183.828 60.8628C183.474 60.4478 183.203 59.9635 183.015 59.4102C182.826 58.8568 182.732 58.2563 182.732 57.6089ZM184.268 57.418V57.6089C184.268 58.0571 184.321 58.4805 184.426 58.8789C184.531 59.2718 184.689 59.6204 184.899 59.9248C185.115 60.2292 185.383 60.4699 185.704 60.647C186.025 60.8185 186.399 60.9043 186.825 60.9043C187.245 60.9043 187.613 60.8185 187.929 60.647C188.25 60.4699 188.515 60.2292 188.726 59.9248C188.936 59.6204 189.094 59.2718 189.199 58.8789C189.309 58.4805 189.365 58.0571 189.365 57.6089V57.418C189.365 56.9753 189.309 56.5575 189.199 56.1646C189.094 55.7661 188.933 55.4147 188.717 55.1104C188.507 54.8005 188.241 54.557 187.92 54.3799C187.605 54.2028 187.234 54.1143 186.808 54.1143C186.388 54.1143 186.017 54.2028 185.696 54.3799C185.38 54.557 185.115 54.8005 184.899 55.1104C184.689 55.4147 184.531 55.7661 184.426 56.1646C184.321 56.5575 184.268 56.9753 184.268 57.418ZM194.37 54.4297V62H192.834V53.0186H194.329L194.37 54.4297ZM197.176 52.9688L197.167 54.3965C197.04 54.3688 196.918 54.3522 196.802 54.3467C196.692 54.3356 196.564 54.3301 196.42 54.3301C196.066 54.3301 195.754 54.3854 195.482 54.4961C195.211 54.6068 194.982 54.7617 194.793 54.9609C194.605 55.1602 194.456 55.3981 194.345 55.6748C194.24 55.946 194.171 56.2448 194.138 56.5713L193.706 56.8203C193.706 56.278 193.759 55.7689 193.864 55.293C193.974 54.8171 194.143 54.3965 194.37 54.0312C194.597 53.6605 194.885 53.3727 195.233 53.168C195.588 52.9577 196.008 52.8525 196.495 52.8525C196.606 52.8525 196.733 52.8664 196.877 52.894C197.021 52.9162 197.12 52.9411 197.176 52.9688ZM205.335 61.0703L207.834 53.0186H209.478L205.875 63.3862C205.792 63.6076 205.681 63.8455 205.543 64.1001C205.41 64.3602 205.239 64.6064 205.028 64.8389C204.818 65.0713 204.563 65.2594 204.265 65.4033C203.971 65.5527 203.62 65.6274 203.21 65.6274C203.089 65.6274 202.934 65.6108 202.746 65.5776C202.557 65.5444 202.425 65.5168 202.347 65.4946L202.339 64.2495C202.383 64.255 202.452 64.2606 202.546 64.2661C202.646 64.2772 202.715 64.2827 202.754 64.2827C203.103 64.2827 203.399 64.2357 203.642 64.1416C203.886 64.0531 204.09 63.9009 204.256 63.6851C204.428 63.4748 204.575 63.1842 204.696 62.8135L205.335 61.0703ZM203.501 53.0186L205.833 59.9912L206.232 61.6099L205.128 62.1743L201.824 53.0186H203.501ZM210.324 57.6089V57.418C210.324 56.7705 210.418 56.1701 210.606 55.6167C210.795 55.0578 211.066 54.5736 211.42 54.1641C211.774 53.749 212.203 53.4281 212.707 53.2012C213.21 52.9688 213.775 52.8525 214.4 52.8525C215.031 52.8525 215.598 52.9688 216.102 53.2012C216.611 53.4281 217.042 53.749 217.396 54.1641C217.756 54.5736 218.03 55.0578 218.218 55.6167C218.406 56.1701 218.5 56.7705 218.5 57.418V57.6089C218.5 58.2563 218.406 58.8568 218.218 59.4102C218.03 59.9635 217.756 60.4478 217.396 60.8628C217.042 61.2723 216.613 61.5933 216.11 61.8257C215.612 62.0526 215.047 62.166 214.417 62.166C213.786 62.166 213.218 62.0526 212.715 61.8257C212.211 61.5933 211.78 61.2723 211.42 60.8628C211.066 60.4478 210.795 59.9635 210.606 59.4102C210.418 58.8568 210.324 58.2563 210.324 57.6089ZM211.86 57.418V57.6089C211.86 58.0571 211.912 58.4805 212.018 58.8789C212.123 59.2718 212.28 59.6204 212.491 59.9248C212.707 60.2292 212.975 60.4699 213.296 60.647C213.617 60.8185 213.99 60.9043 214.417 60.9043C214.837 60.9043 215.205 60.8185 215.521 60.647C215.841 60.4699 216.107 60.2292 216.317 59.9248C216.528 59.6204 216.685 59.2718 216.791 58.8789C216.901 58.4805 216.957 58.0571 216.957 57.6089V57.418C216.957 56.9753 216.901 56.5575 216.791 56.1646C216.685 55.7661 216.525 55.4147 216.309 55.1104C216.099 54.8005 215.833 54.557 215.512 54.3799C215.197 54.2028 214.826 54.1143 214.4 54.1143C213.979 54.1143 213.609 54.2028 213.288 54.3799C212.972 54.557 212.707 54.8005 212.491 55.1104C212.28 55.4147 212.123 55.7661 212.018 56.1646C211.912 56.5575 211.86 56.9753 211.86 57.418ZM225.921 59.9248V53.0186H227.465V62H225.996L225.921 59.9248ZM226.212 58.0322L226.851 58.0156C226.851 58.6133 226.787 59.1667 226.66 59.6758C226.538 60.1794 226.339 60.6165 226.062 60.9873C225.786 61.3581 225.423 61.6486 224.975 61.8589C224.527 62.0636 223.982 62.166 223.34 62.166C222.903 62.166 222.501 62.1024 222.136 61.9751C221.777 61.8478 221.467 61.6514 221.207 61.3857C220.946 61.1201 220.744 60.7743 220.601 60.3481C220.462 59.922 220.393 59.4102 220.393 58.8125V53.0186H221.929V58.8291C221.929 59.2331 221.973 59.5679 222.062 59.8335C222.156 60.0936 222.28 60.3011 222.435 60.4561C222.596 60.6055 222.773 60.7106 222.966 60.7715C223.166 60.8324 223.37 60.8628 223.581 60.8628C224.234 60.8628 224.751 60.7383 225.133 60.4893C225.515 60.2347 225.789 59.8944 225.955 59.4683C226.126 59.0366 226.212 58.5579 226.212 58.0322ZM231.342 54.4297V62H229.806V53.0186H231.3L231.342 54.4297ZM234.147 52.9688L234.139 54.3965C234.012 54.3688 233.89 54.3522 233.774 54.3467C233.663 54.3356 233.536 54.3301 233.392 54.3301C233.038 54.3301 232.725 54.3854 232.454 54.4961C232.183 54.6068 231.953 54.7617 231.765 54.9609C231.577 55.1602 231.428 55.3981 231.317 55.6748C231.212 55.946 231.143 56.2448 231.109 56.5713L230.678 56.8203C230.678 56.278 230.73 55.7689 230.835 55.293C230.946 54.8171 231.115 54.3965 231.342 54.0312C231.569 53.6605 231.856 53.3727 232.205 53.168C232.559 52.9577 232.98 52.8525 233.467 52.8525C233.577 52.8525 233.705 52.8664 233.849 52.894C233.993 52.9162 234.092 52.9411 234.147 52.9688ZM246.474 60.7383V62H239.941V60.7383H246.474ZM246.233 54.106L240.29 62H239.352V60.8711L245.254 53.0186H246.233V54.106ZM245.553 53.0186V54.2886H239.418V53.0186H245.553ZM253.513 60.4644V55.8408C253.513 55.4867 253.441 55.1795 253.297 54.9194C253.159 54.6538 252.949 54.4491 252.667 54.3052C252.384 54.1613 252.036 54.0894 251.621 54.0894C251.233 54.0894 250.893 54.1558 250.6 54.2886C250.312 54.4214 250.085 54.5957 249.919 54.8115C249.758 55.0273 249.678 55.2598 249.678 55.5088H248.143C248.143 55.1878 248.226 54.8696 248.392 54.5542C248.558 54.2388 248.796 53.9538 249.105 53.6992C249.421 53.4391 249.797 53.2344 250.234 53.085C250.677 52.93 251.17 52.8525 251.712 52.8525C252.365 52.8525 252.94 52.9632 253.438 53.1846C253.942 53.4059 254.335 53.7407 254.617 54.189C254.905 54.6317 255.049 55.1878 255.049 55.8574V60.041C255.049 60.3398 255.074 60.658 255.124 60.9956C255.179 61.3332 255.259 61.6237 255.364 61.8672V62H253.762C253.685 61.8229 253.624 61.5877 253.58 61.2944C253.535 60.9956 253.513 60.7189 253.513 60.4644ZM253.779 56.5547L253.795 57.6338H252.243C251.806 57.6338 251.416 57.6698 251.073 57.7417C250.73 57.8081 250.442 57.9105 250.209 58.0488C249.977 58.1872 249.8 58.3615 249.678 58.5718C249.556 58.7765 249.496 59.0173 249.496 59.2939C249.496 59.5762 249.559 59.8335 249.687 60.0659C249.814 60.2983 250.005 60.4837 250.259 60.6221C250.519 60.7549 250.838 60.8213 251.214 60.8213C251.684 60.8213 252.099 60.7217 252.459 60.5225C252.819 60.3232 253.104 60.0798 253.314 59.792C253.53 59.5042 253.646 59.2248 253.663 58.9536L254.318 59.6924C254.28 59.9248 254.174 60.1821 254.003 60.4644C253.831 60.7466 253.602 61.0177 253.314 61.2778C253.032 61.5324 252.694 61.7454 252.301 61.917C251.914 62.083 251.477 62.166 250.99 62.166C250.381 62.166 249.847 62.047 249.388 61.8091C248.934 61.5711 248.58 61.2529 248.325 60.8545C248.076 60.4505 247.952 59.9995 247.952 59.5015C247.952 59.02 248.046 58.5967 248.234 58.2314C248.422 57.8607 248.693 57.5535 249.047 57.3101C249.402 57.061 249.828 56.8729 250.326 56.7456C250.824 56.6183 251.38 56.5547 251.994 56.5547H253.779ZM259 54.7451V65.4531H257.456V53.0186H258.867L259 54.7451ZM265.051 57.4346V57.6089C265.051 58.2619 264.974 58.8678 264.819 59.4268C264.664 59.9801 264.437 60.4616 264.138 60.8711C263.845 61.2806 263.482 61.5988 263.051 61.8257C262.619 62.0526 262.124 62.166 261.565 62.166C260.995 62.166 260.491 62.0719 260.054 61.8838C259.617 61.6956 259.246 61.4217 258.942 61.062C258.638 60.7023 258.394 60.2707 258.211 59.7671C258.034 59.2635 257.913 58.6963 257.846 58.0654V57.1357C257.913 56.4717 258.037 55.8768 258.22 55.3511C258.402 54.8254 258.643 54.3771 258.942 54.0063C259.246 53.63 259.614 53.3451 260.046 53.1514C260.478 52.9521 260.976 52.8525 261.54 52.8525C262.104 52.8525 262.605 52.9632 263.042 53.1846C263.48 53.4004 263.848 53.7103 264.146 54.1143C264.445 54.5182 264.669 55.0024 264.819 55.5669C264.974 56.1258 265.051 56.7484 265.051 57.4346ZM263.507 57.6089V57.4346C263.507 56.9863 263.46 56.5658 263.366 56.1729C263.272 55.7744 263.125 55.4258 262.926 55.127C262.733 54.8226 262.484 54.5846 262.179 54.4131C261.875 54.236 261.512 54.1475 261.092 54.1475C260.704 54.1475 260.367 54.2139 260.079 54.3467C259.797 54.4795 259.556 54.6593 259.357 54.8862C259.158 55.1076 258.994 55.3621 258.867 55.6499C258.745 55.9321 258.654 56.2254 258.593 56.5298V58.6797C258.704 59.0671 258.859 59.4323 259.058 59.7754C259.257 60.113 259.523 60.3869 259.855 60.5972C260.187 60.8019 260.605 60.9043 261.108 60.9043C261.523 60.9043 261.88 60.8185 262.179 60.647C262.484 60.4699 262.733 60.2292 262.926 59.9248C263.125 59.6204 263.272 59.2718 263.366 58.8789C263.46 58.4805 263.507 58.0571 263.507 57.6089ZM272.754 54.8032V62H271.21V53.0186H272.671L272.754 54.8032ZM272.439 57.1689L271.725 57.144C271.731 56.5298 271.811 55.9626 271.966 55.4424C272.121 54.9167 272.35 54.4601 272.655 54.0728C272.959 53.6854 273.338 53.3866 273.792 53.1763C274.246 52.9604 274.771 52.8525 275.369 52.8525C275.79 52.8525 276.177 52.9134 276.531 53.0352C276.885 53.1514 277.193 53.3368 277.453 53.5913C277.713 53.8459 277.915 54.1724 278.059 54.5708C278.202 54.9692 278.274 55.4507 278.274 56.0151V62H276.739V56.0898C276.739 55.6195 276.659 55.2432 276.498 54.9609C276.343 54.6787 276.122 54.474 275.834 54.3467C275.546 54.2139 275.209 54.1475 274.821 54.1475C274.368 54.1475 273.988 54.2277 273.684 54.3882C273.38 54.5487 273.136 54.77 272.954 55.0522C272.771 55.3345 272.638 55.6582 272.555 56.0234C272.478 56.3831 272.439 56.765 272.439 57.1689ZM278.258 56.3223L277.229 56.6377C277.234 56.1452 277.314 55.672 277.469 55.2183C277.63 54.7645 277.859 54.3605 278.158 54.0063C278.463 53.6522 278.836 53.3727 279.279 53.168C279.722 52.9577 280.228 52.8525 280.798 52.8525C281.279 52.8525 281.705 52.9162 282.076 53.0435C282.452 53.1707 282.768 53.3672 283.022 53.6328C283.283 53.8929 283.479 54.2277 283.612 54.6372C283.745 55.0467 283.811 55.5337 283.811 56.0981V62H282.267V56.0815C282.267 55.578 282.187 55.1878 282.026 54.9111C281.871 54.6289 281.65 54.4325 281.362 54.3218C281.08 54.2056 280.743 54.1475 280.35 54.1475C280.012 54.1475 279.713 54.2056 279.453 54.3218C279.193 54.438 278.974 54.5985 278.797 54.8032C278.62 55.0024 278.485 55.2321 278.391 55.4922C278.302 55.7523 278.258 56.029 278.258 56.3223ZM289.862 62.166C289.237 62.166 288.67 62.0609 288.161 61.8506C287.657 61.6348 287.223 61.3332 286.857 60.9458C286.498 60.5584 286.221 60.0991 286.027 59.5679C285.834 59.0366 285.737 58.4556 285.737 57.8247V57.4761C285.737 56.7456 285.845 56.0954 286.061 55.5254C286.276 54.9499 286.57 54.4629 286.94 54.0645C287.311 53.666 287.732 53.3644 288.202 53.1597C288.673 52.9549 289.16 52.8525 289.663 52.8525C290.305 52.8525 290.858 52.9632 291.323 53.1846C291.794 53.4059 292.178 53.7158 292.477 54.1143C292.776 54.5072 292.997 54.972 293.141 55.5088C293.285 56.04 293.357 56.6211 293.357 57.252V57.9409H286.65V56.6875H291.821V56.5713C291.799 56.1729 291.716 55.7855 291.572 55.4092C291.434 55.0329 291.213 54.723 290.908 54.4795C290.604 54.236 290.189 54.1143 289.663 54.1143C289.314 54.1143 288.993 54.189 288.7 54.3384C288.407 54.4823 288.155 54.6981 287.945 54.9858C287.735 55.2736 287.571 55.625 287.455 56.04C287.339 56.4551 287.281 56.9338 287.281 57.4761V57.8247C287.281 58.2508 287.339 58.652 287.455 59.0283C287.577 59.3991 287.751 59.7256 287.978 60.0078C288.21 60.29 288.49 60.5114 288.816 60.6719C289.148 60.8324 289.525 60.9126 289.945 60.9126C290.488 60.9126 290.947 60.8019 291.323 60.5806C291.7 60.3592 292.029 60.0632 292.311 59.6924L293.241 60.4312C293.047 60.7244 292.801 61.0039 292.502 61.2695C292.203 61.5352 291.835 61.751 291.398 61.917C290.966 62.083 290.454 62.166 289.862 62.166ZM300.379 59.6177C300.379 59.3963 300.33 59.1916 300.23 59.0034C300.136 58.8097 299.939 58.6354 299.641 58.4805C299.347 58.32 298.905 58.1816 298.312 58.0654C297.814 57.9603 297.363 57.8358 296.959 57.6919C296.561 57.548 296.221 57.3737 295.938 57.1689C295.662 56.9642 295.449 56.7235 295.299 56.4468C295.15 56.1701 295.075 55.8464 295.075 55.4756C295.075 55.1214 295.153 54.7866 295.308 54.4712C295.468 54.1558 295.692 53.8763 295.98 53.6328C296.273 53.3893 296.625 53.1984 297.034 53.0601C297.444 52.9217 297.9 52.8525 298.404 52.8525C299.123 52.8525 299.737 52.9798 300.247 53.2344C300.756 53.4889 301.146 53.8293 301.417 54.2554C301.688 54.6759 301.824 55.1436 301.824 55.6582H300.288C300.288 55.4092 300.213 55.1685 300.064 54.936C299.92 54.6981 299.707 54.5016 299.425 54.3467C299.148 54.1917 298.808 54.1143 298.404 54.1143C297.978 54.1143 297.632 54.1807 297.366 54.3135C297.106 54.4408 296.915 54.604 296.793 54.8032C296.677 55.0024 296.619 55.2127 296.619 55.4341C296.619 55.6001 296.647 55.7495 296.702 55.8823C296.763 56.0096 296.868 56.1286 297.018 56.2393C297.167 56.3444 297.377 56.444 297.648 56.5381C297.92 56.6322 298.265 56.7262 298.686 56.8203C299.422 56.9863 300.028 57.1855 300.504 57.418C300.98 57.6504 301.334 57.9354 301.566 58.2729C301.799 58.6105 301.915 59.02 301.915 59.5015C301.915 59.8944 301.832 60.2541 301.666 60.5806C301.506 60.9071 301.27 61.1893 300.96 61.4272C300.656 61.6597 300.291 61.8423 299.865 61.9751C299.444 62.1024 298.971 62.166 298.445 62.166C297.654 62.166 296.984 62.0249 296.437 61.7427C295.889 61.4604 295.474 61.0952 295.191 60.647C294.909 60.1987 294.768 59.7256 294.768 59.2275H296.312C296.334 59.6481 296.456 59.9829 296.677 60.2319C296.899 60.4754 297.17 60.6497 297.491 60.7549C297.812 60.8545 298.13 60.9043 298.445 60.9043C298.866 60.9043 299.217 60.849 299.5 60.7383C299.787 60.6276 300.006 60.4754 300.155 60.2817C300.305 60.0881 300.379 59.8667 300.379 59.6177ZM309.162 59.6177C309.162 59.3963 309.112 59.1916 309.012 59.0034C308.918 58.8097 308.722 58.6354 308.423 58.4805C308.13 58.32 307.687 58.1816 307.095 58.0654C306.597 57.9603 306.146 57.8358 305.742 57.6919C305.343 57.548 305.003 57.3737 304.721 57.1689C304.444 56.9642 304.231 56.7235 304.082 56.4468C303.932 56.1701 303.857 55.8464 303.857 55.4756C303.857 55.1214 303.935 54.7866 304.09 54.4712C304.25 54.1558 304.474 53.8763 304.762 53.6328C305.056 53.3893 305.407 53.1984 305.816 53.0601C306.226 52.9217 306.682 52.8525 307.186 52.8525C307.905 52.8525 308.52 52.9798 309.029 53.2344C309.538 53.4889 309.928 53.8293 310.199 54.2554C310.47 54.6759 310.606 55.1436 310.606 55.6582H309.07C309.07 55.4092 308.996 55.1685 308.846 54.936C308.702 54.6981 308.489 54.5016 308.207 54.3467C307.93 54.1917 307.59 54.1143 307.186 54.1143C306.76 54.1143 306.414 54.1807 306.148 54.3135C305.888 54.4408 305.697 54.604 305.576 54.8032C305.459 55.0024 305.401 55.2127 305.401 55.4341C305.401 55.6001 305.429 55.7495 305.484 55.8823C305.545 56.0096 305.65 56.1286 305.8 56.2393C305.949 56.3444 306.16 56.444 306.431 56.5381C306.702 56.6322 307.048 56.7262 307.468 56.8203C308.204 56.9863 308.81 57.1855 309.286 57.418C309.762 57.6504 310.116 57.9354 310.349 58.2729C310.581 58.6105 310.697 59.02 310.697 59.5015C310.697 59.8944 310.614 60.2541 310.448 60.5806C310.288 60.9071 310.053 61.1893 309.743 61.4272C309.438 61.6597 309.073 61.8423 308.647 61.9751C308.226 62.1024 307.753 62.166 307.228 62.166C306.436 62.166 305.767 62.0249 305.219 61.7427C304.671 61.4604 304.256 61.0952 303.974 60.647C303.691 60.1987 303.55 59.7256 303.55 59.2275H305.094C305.116 59.6481 305.238 59.9829 305.459 60.2319C305.681 60.4754 305.952 60.6497 306.273 60.7549C306.594 60.8545 306.912 60.9043 307.228 60.9043C307.648 60.9043 308 60.849 308.282 60.7383C308.569 60.6276 308.788 60.4754 308.938 60.2817C309.087 60.0881 309.162 59.8667 309.162 59.6177ZM318.01 60.4644V55.8408C318.01 55.4867 317.938 55.1795 317.794 54.9194C317.656 54.6538 317.446 54.4491 317.164 54.3052C316.881 54.1613 316.533 54.0894 316.118 54.0894C315.73 54.0894 315.39 54.1558 315.097 54.2886C314.809 54.4214 314.582 54.5957 314.416 54.8115C314.256 55.0273 314.175 55.2598 314.175 55.5088H312.64C312.64 55.1878 312.723 54.8696 312.889 54.5542C313.055 54.2388 313.293 53.9538 313.603 53.6992C313.918 53.4391 314.294 53.2344 314.731 53.085C315.174 52.93 315.667 52.8525 316.209 52.8525C316.862 52.8525 317.438 52.9632 317.936 53.1846C318.439 53.4059 318.832 53.7407 319.114 54.189C319.402 54.6317 319.546 55.1878 319.546 55.8574V60.041C319.546 60.3398 319.571 60.658 319.621 60.9956C319.676 61.3332 319.756 61.6237 319.861 61.8672V62H318.259C318.182 61.8229 318.121 61.5877 318.077 61.2944C318.032 60.9956 318.01 60.7189 318.01 60.4644ZM318.276 56.5547L318.292 57.6338H316.74C316.303 57.6338 315.913 57.6698 315.57 57.7417C315.227 57.8081 314.939 57.9105 314.707 58.0488C314.474 58.1872 314.297 58.3615 314.175 58.5718C314.054 58.7765 313.993 59.0173 313.993 59.2939C313.993 59.5762 314.056 59.8335 314.184 60.0659C314.311 60.2983 314.502 60.4837 314.756 60.6221C315.016 60.7549 315.335 60.8213 315.711 60.8213C316.181 60.8213 316.596 60.7217 316.956 60.5225C317.316 60.3232 317.601 60.0798 317.811 59.792C318.027 59.5042 318.143 59.2248 318.16 58.9536L318.815 59.6924C318.777 59.9248 318.672 60.1821 318.5 60.4644C318.328 60.7466 318.099 61.0177 317.811 61.2778C317.529 61.5324 317.191 61.7454 316.798 61.917C316.411 62.083 315.974 62.166 315.487 62.166C314.878 62.166 314.344 62.047 313.885 61.8091C313.431 61.5711 313.077 61.2529 312.822 60.8545C312.573 60.4505 312.449 59.9995 312.449 59.5015C312.449 59.02 312.543 58.5967 312.731 58.2314C312.919 57.8607 313.19 57.5535 313.544 57.3101C313.899 57.061 314.325 56.8729 314.823 56.7456C315.321 56.6183 315.877 56.5547 316.491 56.5547H318.276ZM327.78 53.0186H329.175V61.8091C329.175 62.6004 329.014 63.2756 328.693 63.8345C328.372 64.3934 327.924 64.8167 327.349 65.1045C326.779 65.3978 326.12 65.5444 325.373 65.5444C325.063 65.5444 324.698 65.4946 324.277 65.395C323.862 65.3009 323.453 65.1377 323.049 64.9053C322.65 64.6784 322.316 64.3713 322.044 63.9839L322.85 63.0708C323.226 63.5246 323.619 63.84 324.028 64.0171C324.443 64.1942 324.853 64.2827 325.257 64.2827C325.744 64.2827 326.164 64.1914 326.519 64.0088C326.873 63.8262 327.147 63.555 327.34 63.1953C327.54 62.8411 327.639 62.404 327.639 61.8838V54.9941L327.78 53.0186ZM321.596 57.6089V57.4346C321.596 56.7484 321.676 56.1258 321.837 55.5669C322.003 55.0024 322.238 54.5182 322.542 54.1143C322.852 53.7103 323.226 53.4004 323.663 53.1846C324.1 52.9632 324.593 52.8525 325.141 52.8525C325.705 52.8525 326.198 52.9521 326.618 53.1514C327.044 53.3451 327.404 53.63 327.697 54.0063C327.996 54.3771 328.231 54.8254 328.403 55.3511C328.574 55.8768 328.693 56.4717 328.76 57.1357V57.8994C328.699 58.5579 328.58 59.1501 328.403 59.6758C328.231 60.2015 327.996 60.6497 327.697 61.0205C327.404 61.3913 327.044 61.6763 326.618 61.8755C326.192 62.0692 325.694 62.166 325.124 62.166C324.587 62.166 324.1 62.0526 323.663 61.8257C323.231 61.5988 322.861 61.2806 322.551 60.8711C322.241 60.4616 322.003 59.9801 321.837 59.4268C321.676 58.8678 321.596 58.2619 321.596 57.6089ZM323.132 57.4346V57.6089C323.132 58.0571 323.176 58.4777 323.265 58.8706C323.359 59.2635 323.5 59.6094 323.688 59.9082C323.882 60.207 324.128 60.4422 324.427 60.6138C324.726 60.7798 325.083 60.8628 325.498 60.8628C326.007 60.8628 326.427 60.7549 326.759 60.5391C327.091 60.3232 327.354 60.0382 327.548 59.6841C327.747 59.3299 327.902 58.9453 328.013 58.5303V56.5298C327.952 56.2254 327.858 55.9321 327.73 55.6499C327.609 55.3621 327.448 55.1076 327.249 54.8862C327.055 54.6593 326.815 54.4795 326.527 54.3467C326.239 54.2139 325.902 54.1475 325.514 54.1475C325.094 54.1475 324.731 54.236 324.427 54.4131C324.128 54.5846 323.882 54.8226 323.688 55.127C323.5 55.4258 323.359 55.7744 323.265 56.1729C323.176 56.5658 323.132 56.9863 323.132 57.4346ZM335.234 62.166C334.609 62.166 334.042 62.0609 333.533 61.8506C333.029 61.6348 332.595 61.3332 332.229 60.9458C331.87 60.5584 331.593 60.0991 331.399 59.5679C331.206 59.0366 331.109 58.4556 331.109 57.8247V57.4761C331.109 56.7456 331.217 56.0954 331.433 55.5254C331.648 54.9499 331.942 54.4629 332.312 54.0645C332.683 53.666 333.104 53.3644 333.574 53.1597C334.045 52.9549 334.532 52.8525 335.035 52.8525C335.677 52.8525 336.23 52.9632 336.695 53.1846C337.166 53.4059 337.55 53.7158 337.849 54.1143C338.148 54.5072 338.369 54.972 338.513 55.5088C338.657 56.04 338.729 56.6211 338.729 57.252V57.9409H332.022V56.6875H337.193V56.5713C337.171 56.1729 337.088 55.7855 336.944 55.4092C336.806 55.0329 336.585 54.723 336.28 54.4795C335.976 54.236 335.561 54.1143 335.035 54.1143C334.687 54.1143 334.366 54.189 334.072 54.3384C333.779 54.4823 333.527 54.6981 333.317 54.9858C333.107 55.2736 332.943 55.625 332.827 56.04C332.711 56.4551 332.653 56.9338 332.653 57.4761V57.8247C332.653 58.2508 332.711 58.652 332.827 59.0283C332.949 59.3991 333.123 59.7256 333.35 60.0078C333.583 60.29 333.862 60.5114 334.188 60.6719C334.521 60.8324 334.897 60.9126 335.317 60.9126C335.86 60.9126 336.319 60.8019 336.695 60.5806C337.072 60.3592 337.401 60.0632 337.683 59.6924L338.613 60.4312C338.419 60.7244 338.173 61.0039 337.874 61.2695C337.575 61.5352 337.207 61.751 336.77 61.917C336.338 62.083 335.826 62.166 335.234 62.166ZM345.751 59.6177C345.751 59.3963 345.702 59.1916 345.602 59.0034C345.508 58.8097 345.312 58.6354 345.013 58.4805C344.719 58.32 344.277 58.1816 343.685 58.0654C343.187 57.9603 342.736 57.8358 342.332 57.6919C341.933 57.548 341.593 57.3737 341.311 57.1689C341.034 56.9642 340.821 56.7235 340.671 56.4468C340.522 56.1701 340.447 55.8464 340.447 55.4756C340.447 55.1214 340.525 54.7866 340.68 54.4712C340.84 54.1558 341.064 53.8763 341.352 53.6328C341.645 53.3893 341.997 53.1984 342.406 53.0601C342.816 52.9217 343.272 52.8525 343.776 52.8525C344.495 52.8525 345.11 52.9798 345.619 53.2344C346.128 53.4889 346.518 53.8293 346.789 54.2554C347.06 54.6759 347.196 55.1436 347.196 55.6582H345.66C345.66 55.4092 345.585 55.1685 345.436 54.936C345.292 54.6981 345.079 54.5016 344.797 54.3467C344.52 54.1917 344.18 54.1143 343.776 54.1143C343.35 54.1143 343.004 54.1807 342.738 54.3135C342.478 54.4408 342.287 54.604 342.166 54.8032C342.049 55.0024 341.991 55.2127 341.991 55.4341C341.991 55.6001 342.019 55.7495 342.074 55.8823C342.135 56.0096 342.24 56.1286 342.39 56.2393C342.539 56.3444 342.749 56.444 343.021 56.5381C343.292 56.6322 343.638 56.7262 344.058 56.8203C344.794 56.9863 345.4 57.1855 345.876 57.418C346.352 57.6504 346.706 57.9354 346.938 58.2729C347.171 58.6105 347.287 59.02 347.287 59.5015C347.287 59.8944 347.204 60.2541 347.038 60.5806C346.878 60.9071 346.642 61.1893 346.333 61.4272C346.028 61.6597 345.663 61.8423 345.237 61.9751C344.816 62.1024 344.343 62.166 343.817 62.166C343.026 62.166 342.356 62.0249 341.809 61.7427C341.261 61.4604 340.846 61.0952 340.563 60.647C340.281 60.1987 340.14 59.7256 340.14 59.2275H341.684C341.706 59.6481 341.828 59.9829 342.049 60.2319C342.271 60.4754 342.542 60.6497 342.863 60.7549C343.184 60.8545 343.502 60.9043 343.817 60.9043C344.238 60.9043 344.589 60.849 344.872 60.7383C345.159 60.6276 345.378 60.4754 345.527 60.2817C345.677 60.0881 345.751 59.8667 345.751 59.6177Z" fill="#D2D4D9"/>
<defs>
<clipPath id="clip0_2_76">
<rect width="70" height="70" fill="white"/>
</clipPath>
</defs>
</svg>
